<?xml version="1.0" encoding="UTF-8"?>
<!DOCTYPE svg PUBLIC "-//W3C//DTD SVG 1.1//EN" "http://www.w3.org/Graphics/SVG/1.1/DTD/svg11.dtd">
<!-- Creator: CorelDRAW -->
<svg xmlns="http://www.w3.org/2000/svg" xml:space="preserve" width="200px" height="200px" version="1.1" shape-rendering="geometricPrecision" text-rendering="geometricPrecision" image-rendering="optimizeQuality" fill-rule="evenodd" clip-rule="evenodd"
viewBox="0 0 200 200"
 xmlns:xlink="http://www.w3.org/1999/xlink"
 xmlns:xodm="http://www.corel.com/coreldraw/odm/2003">
 <g id="Layer_x0020_1">
  <metadata id="CorelCorpID_0Corel-Layer"/>
  <g id="_2650608317792">
   <rect fill="#FEFEFE" x="30.36" y="30.36" width="169.64" height="169.64" rx="16" ry="16"/>
   <rect fill="#C24100" x="38.38" y="38.38" width="153.61" height="153.61" rx="13.36" ry="13.36"/>
   <path fill="#FEFEFE" d="M135.41 169.64l0 28.59 -2.53 0 -29.82 -28.59 -81.68 0c-11.77,0 -21.38,-9.61 -21.38,-21.38l0 -126.88c0,-11.78 9.6,-21.38 21.38,-21.38l126.88 0c11.78,0 21.38,9.6 21.38,21.38l0 126.88c0,11.78 -9.6,21.38 -21.38,21.38l-12.85 0z"/>
   <path fill="#FF6600" d="M21.38 8.02l126.88 0c7.35,0 13.36,6.01 13.36,13.36l0 126.88c0,7.35 -6.01,13.36 -13.36,13.36l-20.87 0 0 20.24 -21.11 -20.24 -84.9 0c-7.35,0 -13.36,-6.01 -13.36,-13.36l0 -126.88c0,-7.35 6.01,-13.36 13.36,-13.36z"/>
   <g>
    <path fill="white" d="M88.5 74.18l20.86 0 0 -7.77 10.63 0 0 7.77 20.9 0 0 10.63 -8.24 0c-1.24,7.84 -5.09,16.3 -10.77,24.12l-0.33 0.45 1.61 1.67c4.61,4.64 9.91,8.65 15.73,11.86l-5.11 9.3c-6.68,-3.68 -12.8,-8.31 -18.14,-13.69l-0.98 -1.01c-5.56,5.76 -12.12,10.87 -19.29,14.72l-5.01 -9.34c6.51,-3.5 12.47,-8.23 17.44,-13.55 -2.09,-2.86 -4,-5.88 -5.7,-9.02l9.34 -5.02c1,1.85 2.08,3.66 3.25,5.4 3.58,-5.33 6.09,-10.82 7.17,-15.89l-33.36 0 0 -10.63z"/>
    <polygon fill="white" points="28.85,104.9 28.85,39.08 41.75,39.08 68.84,83.19 68.84,39.08 81.16,39.08 81.16,104.9 67.84,104.9 41.17,61.63 41.17,104.9 "/>
   </g>
  </g>
 </g>
</svg>
